<svg width="512" height="512" viewBox="0 0 512 512" fill="none" xmlns="http://www.w3.org/2000/svg">
<path d="M155.583 156.956C147.836 181.096 140.642 202.91 134.002 222.399C127.583 241.888 121.607 259.827 116.073 276.215C110.761 292.604 105.781 307.774 101.133 321.727C96.4848 335.457 92.1687 348.635 88.1845 361.258C85.9711 375.875 78.7776 386.173 66.6038 392.153C59.521 395.475 51.11 397.136 41.371 397.136C31.6321 397.136 24.3278 396.028 19.4583 393.814C14.5888 391.82 11.4901 388.831 10.162 384.844C8.61265 380.858 8.61265 376.096 10.162 370.56C11.4901 364.802 13.9248 357.05 17.4663 347.306C21.0077 337.34 25.4345 323.941 30.7467 307.11C36.2802 290.279 42.0351 273.226 48.0113 255.951C62.8411 212.766 74.5721 182.868 83.2044 166.258C86.5245 160.057 89.8446 155.96 93.1647 153.967C96.4848 151.752 99.6942 150.202 102.793 149.316C105.892 148.208 108.769 146.99 111.425 145.662C114.081 144.333 116.405 141.011 118.398 135.696C120.611 130.38 124.484 126.726 130.018 124.733C135.773 122.74 141.085 122.629 145.954 124.401C151.045 125.951 154.808 129.495 157.243 135.031C159.899 140.346 159.345 147.655 155.583 156.956Z" fill="#15F5BA"/>
<path d="M176.894 255.619C173.131 223.507 171.581 197.374 172.245 177.22C171.803 167.697 175.676 158.617 183.866 149.98C191.613 141.786 199.692 137.246 208.103 136.36C217.399 135.696 223.375 140.9 226.031 151.973C227.802 158.174 230.015 165.372 232.671 173.566C235.328 181.76 237.873 190.398 240.308 199.478C242.742 196.156 246.616 190.287 251.928 181.871C257.24 173.455 262.22 165.926 266.869 159.282C278.157 143.115 288.117 131.82 296.749 125.397C305.16 122.076 312.354 121.19 318.33 122.74C324.528 124.069 328.955 126.283 331.611 129.384C334.488 132.484 335.595 137.024 334.931 143.004C334.488 156.956 323.864 178.881 303.058 208.779C298.188 215.645 293.208 223.617 288.117 232.698C283.248 241.778 277.493 251.965 270.853 263.26C264.434 274.333 258.236 285.406 252.26 296.48C238.537 321.505 227.802 345.313 220.055 367.902C220.276 367.459 221.162 368.013 222.711 369.563C224.261 370.892 225.699 372.885 227.027 375.543C230.569 382.187 230.237 387.723 226.031 392.153C215.407 403.226 202.237 409.427 186.522 410.756C172.135 411.863 159.74 409.205 149.337 402.783C138.934 396.803 135.503 389.384 139.044 380.526H138.048C142.918 367.902 148.451 356.054 154.649 344.981C160.846 333.686 167.265 322.059 173.906 310.1L188.846 283.524C185.083 284.41 181.984 281.752 179.55 275.551C177.779 270.457 176.894 263.813 176.894 255.619Z" fill="#15F5BA"/>
<path d="M355.253 400.79C343.965 401.233 333.562 399.793 324.044 396.471C314.748 393.371 307.112 389.052 301.136 383.515C295.381 377.979 291.729 371.556 290.179 364.248C288.63 356.718 289.958 349.078 294.163 341.326C299.918 332.025 311.428 329.256 328.693 333.021C341.752 335.679 350.716 337.118 355.585 337.34C360.676 337.561 364.992 336.897 368.534 335.347C384.692 330.032 393.767 324.273 395.759 318.072C397.087 313.422 394.209 307.996 387.126 301.795C384.249 299.137 381.04 296.48 377.498 293.822C373.957 291.164 370.969 288.507 368.534 285.849C357.467 277.655 348.724 268.243 342.305 257.612C336.107 246.761 333.562 235.023 334.669 222.399C335.775 209.776 337.878 199.367 340.977 191.173C344.076 182.757 347.949 175.338 352.597 168.915C360.787 157.621 371.411 148.43 384.47 141.343C399.521 133.592 411.585 128.609 420.659 126.394C438.588 122.408 456.738 122.076 475.109 125.397C481.307 126.505 486.619 128.609 491.046 131.709C495.473 134.81 499.899 138.021 504.326 141.343C512.073 149.094 513.955 156.956 509.97 164.929C508.421 168.473 505.986 171.352 502.666 173.566C499.346 175.781 495.805 176.999 492.042 177.22C492.484 183.2 491.378 187.629 488.722 190.508C483.631 195.602 474.777 198.924 462.161 200.474C444.011 199.145 431.727 200.142 425.308 203.464C417.782 207.45 415.015 216.088 417.007 229.376C417.45 232.255 419.221 235.244 422.32 238.345C425.64 241.445 429.402 244.767 433.608 248.311C438.035 251.854 442.572 255.841 447.22 260.27C452.09 264.699 456.295 269.793 459.837 275.551C472.232 295.926 471.236 319.733 456.849 346.974C446.224 367.349 428.074 382.63 402.399 392.817C389.118 398.132 373.403 400.79 355.253 400.79Z" fill="#15F5BA"/>
<path d="M146.583 143.956C138.836 168.096 131.642 189.91 125.002 209.399C118.583 228.888 112.607 246.827 107.073 263.215C101.761 279.604 96.7811 294.774 92.133 308.727C87.4848 322.457 83.1687 335.635 79.1845 348.258C76.9711 362.875 69.7776 373.173 57.6038 379.153C50.521 382.475 42.11 384.136 32.371 384.136C22.6321 384.136 15.3278 383.028 10.4583 380.814C5.58885 378.82 2.49008 375.831 1.16204 371.844C-0.387346 367.858 -0.387346 363.096 1.16204 357.56C2.49008 351.802 4.92482 344.05 8.46627 334.306C12.0077 324.34 16.4345 310.941 21.7467 294.11C27.2802 277.279 33.0351 260.226 39.0113 242.951C53.8411 199.766 65.5721 169.868 74.2044 153.258C77.5245 147.057 80.8446 142.96 84.1647 140.967C87.4848 138.752 90.6942 137.202 93.793 136.316C96.8918 135.208 99.7692 133.99 102.425 132.662C105.081 131.333 107.405 128.011 109.398 122.696C111.611 117.38 115.484 113.726 121.018 111.733C126.773 109.74 132.085 109.629 136.954 111.401C142.045 112.951 145.808 116.495 148.243 122.031C150.899 127.346 150.345 134.655 146.583 143.956Z" fill="#836FFF"/>
<path d="M167.894 242.619C164.131 210.507 162.581 184.374 163.245 164.22C162.803 154.697 166.676 145.617 174.866 136.98C182.613 128.786 190.692 124.246 199.103 123.36C208.399 122.696 214.375 127.9 217.031 138.973C218.802 145.174 221.015 152.372 223.671 160.566C226.328 168.76 228.873 177.398 231.308 186.478C233.742 183.156 237.616 177.287 242.928 168.871C248.24 160.455 253.22 152.926 257.869 146.282C269.157 130.115 279.117 118.82 287.749 112.397C296.16 109.076 303.354 108.19 309.33 109.74C315.528 111.069 319.955 113.283 322.611 116.384C325.488 119.484 326.595 124.024 325.931 130.004C325.488 143.956 314.864 165.881 294.058 195.779C289.188 202.645 284.208 210.617 279.117 219.698C274.248 228.778 268.493 238.965 261.853 250.26C255.434 261.333 249.236 272.406 243.26 283.48C229.537 308.505 218.802 332.313 211.055 354.902C211.276 354.459 212.162 355.013 213.711 356.563C215.261 357.892 216.699 359.885 218.027 362.543C221.569 369.187 221.237 374.723 217.031 379.153C206.407 390.226 193.237 396.427 177.522 397.756C163.135 398.863 150.74 396.205 140.337 389.783C129.934 383.803 126.503 376.384 130.044 367.526H129.048C133.918 354.902 139.451 343.054 145.649 331.981C151.846 320.686 158.265 309.059 164.906 297.1L179.846 270.524C176.083 271.41 172.984 268.752 170.55 262.551C168.779 257.457 167.894 250.813 167.894 242.619Z" fill="#836FFF"/>
<path d="M346.253 387.79C334.965 388.233 324.562 386.793 315.044 383.471C305.748 380.371 298.112 376.052 292.136 370.515C286.381 364.979 282.729 358.556 281.179 351.248C279.63 343.718 280.958 336.078 285.163 328.326C290.918 319.025 302.428 316.256 319.693 320.021C332.752 322.679 341.716 324.118 346.585 324.34C351.676 324.561 355.992 323.897 359.534 322.347C375.692 317.032 384.767 311.273 386.759 305.072C388.087 300.422 385.209 294.996 378.126 288.795C375.249 286.137 372.04 283.48 368.498 280.822C364.957 278.164 361.969 275.507 359.534 272.849C348.467 264.655 339.724 255.243 333.305 244.612C327.107 233.761 324.562 222.023 325.669 209.399C326.775 196.776 328.878 186.367 331.977 178.173C335.076 169.757 338.949 162.338 343.597 155.915C351.787 144.621 362.411 135.43 375.47 128.343C390.521 120.592 402.585 115.609 411.659 113.394C429.588 109.408 447.738 109.076 466.109 112.397C472.307 113.505 477.619 115.609 482.046 118.709C486.473 121.81 490.899 125.021 495.326 128.343C503.073 136.094 504.955 143.956 500.97 151.929C499.421 155.473 496.986 158.352 493.666 160.566C490.346 162.781 486.805 163.999 483.042 164.22C483.484 170.2 482.378 174.629 479.722 177.508C474.631 182.602 465.777 185.924 453.161 187.474C435.011 186.145 422.727 187.142 416.308 190.464C408.782 194.45 406.015 203.088 408.007 216.376C408.45 219.255 410.221 222.244 413.32 225.345C416.64 228.445 420.402 231.767 424.608 235.311C429.035 238.854 433.572 242.841 438.22 247.27C443.09 251.699 447.295 256.793 450.837 262.551C463.232 282.926 462.236 306.733 447.849 333.974C437.224 354.349 419.074 369.63 393.399 379.817C380.118 385.132 364.403 387.79 346.253 387.79Z" fill="#836FFF"/>
</svg>
